<svg width="31" height="31" viewBox="0 0 31 31" fill="none" xmlns="http://www.w3.org/2000/svg">
<path d="M30.0834 5.40833C30.0846 4.51906 29.8218 3.64945 29.3283 2.90966C28.8349 2.16988 28.1329 1.59322 27.3114 1.25275C26.4899 0.912275 25.5858 0.823315 24.7137 0.997138C23.8416 1.17096 23.0407 1.59974 22.4125 2.22916L18.3146 6.32708L8.85002 3.17708C8.59803 3.09787 8.32926 3.0886 8.07241 3.15024C7.81556 3.21189 7.58028 3.34213 7.39168 3.52708L3.92085 6.96874C3.75639 7.13511 3.63437 7.33859 3.56508 7.56202C3.49579 7.78545 3.48127 8.02227 3.52274 8.2525C3.56421 8.48272 3.66045 8.69959 3.80335 8.8848C3.94624 9.07002 4.1316 9.21813 4.34377 9.31666L11.8979 12.7437L8.10627 16.5354L5.61252 15.2812C5.34327 15.1355 5.03499 15.0782 4.73137 15.1175C4.42774 15.1568 4.14418 15.2906 3.92085 15.5L1.3396 18.1396C1.06798 18.4128 0.915527 18.7824 0.915527 19.1677C0.915527 19.553 1.06798 19.9226 1.3396 20.1958L10.8042 29.6604C11.0774 29.932 11.447 30.0845 11.8323 30.0845C12.2176 30.0845 12.5872 29.932 12.8604 29.6604L15.5 27.0792C15.7189 26.8626 15.8636 26.5822 15.9134 26.2783C15.9631 25.9744 15.9154 25.6626 15.7771 25.3875L14.5229 22.8937L18.3146 19.1021L21.7417 26.6562C21.8402 26.8684 21.9883 27.0538 22.1735 27.1967C22.3587 27.3396 22.5756 27.4358 22.8058 27.4773C23.0361 27.5187 23.2729 27.5042 23.4963 27.4349C23.7198 27.3656 23.9232 27.2436 24.0896 27.0792L27.5313 23.6375C27.7162 23.4489 27.8465 23.2136 27.9081 22.9568C27.9697 22.6999 27.9605 22.4311 27.8813 22.1792L24.7313 12.7146L28.7709 8.58749C29.1897 8.17123 29.5215 7.67574 29.7468 7.12991C29.9722 6.58407 30.0866 5.99883 30.0834 5.40833ZM26.7 6.53124L21.975 11.2562C21.7901 11.4448 21.6598 11.6801 21.5982 11.937C21.5365 12.1938 21.5458 12.4626 21.625 12.7146L24.775 22.1646L23.4625 23.4771L20.0354 15.9375C19.9382 15.7234 19.7906 15.5359 19.6052 15.3912C19.4198 15.2464 19.2022 15.1487 18.9708 15.1062C18.7376 15.0637 18.4975 15.0786 18.2714 15.1498C18.0452 15.2209 17.8398 15.3461 17.6729 15.5146L11.6646 21.5812C11.4489 21.7967 11.3062 22.0744 11.2564 22.3752C11.2067 22.6761 11.2526 22.9849 11.3875 23.2583L12.5834 25.7083L11.7667 26.525L4.43127 19.175L5.29168 18.4167L7.78543 19.6708C8.05886 19.8058 8.36769 19.8516 8.66852 19.8019C8.96935 19.7522 9.24703 19.6095 9.46252 19.3937L15.5 13.3271C15.6676 13.1608 15.7923 12.9564 15.8634 12.7313C15.9345 12.5062 15.95 12.2672 15.9084 12.0349C15.8668 11.8025 15.7694 11.5837 15.6246 11.3973C15.4798 11.2109 15.2919 11.0624 15.0771 10.9646L7.47918 7.53749L8.79168 6.22499L18.2417 9.37499C18.4937 9.45419 18.7624 9.46347 19.0193 9.40182C19.2761 9.34018 19.5114 9.20993 19.7 9.02499L24.425 4.29999C24.5703 4.15139 24.7439 4.03332 24.9355 3.95271C25.127 3.8721 25.3328 3.83058 25.5406 3.83058C25.7485 3.83058 25.9542 3.8721 26.1458 3.95271C26.3374 4.03332 26.5109 4.15139 26.6563 4.29999C26.8084 4.44093 26.9287 4.61269 27.0092 4.80382C27.0896 4.99494 27.1284 5.20103 27.1229 5.40833C27.1308 5.61424 27.0975 5.81965 27.0249 6.01249C26.9522 6.20533 26.8418 6.38171 26.7 6.53124Z" fill="#FAFAFA"/>
</svg>
