<svg width="20" height="20" viewBox="0 0 20 20" fill="none" xmlns="http://www.w3.org/2000/svg">
<path d="M14.1666 8.64168C14.0105 8.48647 13.7993 8.39935 13.5791 8.39935C13.359 8.39935 13.1478 8.48647 12.9916 8.64168L9.99998 11.5917L7.04998 8.64168C6.89384 8.48647 6.68263 8.39935 6.46248 8.39935C6.24232 8.39935 6.03111 8.48647 5.87498 8.64168C5.79687 8.71915 5.73488 8.81132 5.69257 8.91287C5.65026 9.01442 5.62848 9.12334 5.62848 9.23335C5.62848 9.34336 5.65026 9.45228 5.69257 9.55383C5.73488 9.65538 5.79687 9.74754 5.87498 9.82501L9.40831 13.3583C9.48578 13.4365 9.57795 13.4984 9.6795 13.5408C9.78105 13.5831 9.88997 13.6048 9.99998 13.6048C10.11 13.6048 10.2189 13.5831 10.3205 13.5408C10.422 13.4984 10.5142 13.4365 10.5916 13.3583L14.1666 9.82501C14.2448 9.74754 14.3067 9.65538 14.3491 9.55383C14.3914 9.45228 14.4131 9.34336 14.4131 9.23335C14.4131 9.12334 14.3914 9.01442 14.3491 8.91287C14.3067 8.81132 14.2448 8.71915 14.1666 8.64168Z" fill="#FAFAFA"/>
</svg>
