<svg width="31" height="29" viewBox="0 0 31 29" fill="none" xmlns="http://www.w3.org/2000/svg">
<path d="M25.7084 6.47918H21.3334V5.02084C21.3334 3.86052 20.8724 2.74772 20.0519 1.92725C19.2315 1.10678 18.1187 0.645844 16.9584 0.645844H14.0417C12.8814 0.645844 11.7686 1.10678 10.9481 1.92725C10.1276 2.74772 9.66669 3.86052 9.66669 5.02084V6.47918H5.29169C4.13136 6.47918 3.01857 6.94011 2.19809 7.76058C1.37762 8.58106 0.916687 9.69386 0.916687 10.8542V23.9792C0.916687 25.1395 1.37762 26.2523 2.19809 27.0728C3.01857 27.8932 4.13136 28.3542 5.29169 28.3542H25.7084C26.8687 28.3542 27.9815 27.8932 28.8019 27.0728C29.6224 26.2523 30.0834 25.1395 30.0834 23.9792V10.8542C30.0834 9.69386 29.6224 8.58106 28.8019 7.76058C27.9815 6.94011 26.8687 6.47918 25.7084 6.47918ZM12.5834 5.02084C12.5834 4.63407 12.737 4.26314 13.0105 3.98965C13.284 3.71616 13.6549 3.56251 14.0417 3.56251H16.9584C17.3451 3.56251 17.7161 3.71616 17.9895 3.98965C18.263 4.26314 18.4167 4.63407 18.4167 5.02084V6.47918H12.5834V5.02084ZM27.1667 23.9792C27.1667 24.366 27.013 24.7369 26.7396 25.0104C26.4661 25.2839 26.0951 25.4375 25.7084 25.4375H5.29169C4.90491 25.4375 4.53398 25.2839 4.26049 25.0104C3.987 24.7369 3.83335 24.366 3.83335 23.9792V15.9583C7.54665 17.4315 11.5052 18.1885 15.5 18.1896C19.4947 18.1871 23.453 17.4301 27.1667 15.9583V23.9792ZM27.1667 12.7646C23.4893 14.3801 19.5166 15.2143 15.5 15.2143C11.4835 15.2143 7.51069 14.3801 3.83335 12.7646V10.8542C3.83335 10.4674 3.987 10.0965 4.26049 9.82298C4.53398 9.54949 4.90491 9.39584 5.29169 9.39584H25.7084C26.0951 9.39584 26.4661 9.54949 26.7396 9.82298C27.013 10.0965 27.1667 10.4674 27.1667 10.8542V12.7646Z" fill="#FAFAFA"/>
</svg>
