<svg width="31" height="23" viewBox="0 0 31 23" fill="none" xmlns="http://www.w3.org/2000/svg">
<path d="M25.7084 7.85415H25.2417L23.4188 3.30415C23.0932 2.49515 22.5333 1.8019 21.8109 1.31339C21.0885 0.824875 20.2367 0.563386 19.3646 0.562487H10.6146C9.60148 0.559588 8.61876 0.908391 7.83417 1.54936C7.04958 2.19033 6.51176 3.08373 6.31252 4.07707L5.55419 7.85415H5.29169C4.13136 7.85415 3.01857 8.31509 2.19809 9.13556C1.37762 9.95603 0.916687 11.0688 0.916687 12.2292V16.6042C0.916687 16.9909 1.07033 17.3619 1.34382 17.6354C1.61731 17.9088 1.98825 18.0625 2.37502 18.0625H3.83335C3.83335 19.2228 4.29429 20.3356 5.11476 21.1561C5.93523 21.9766 7.04803 22.4375 8.20835 22.4375C9.36868 22.4375 10.4815 21.9766 11.3019 21.1561C12.1224 20.3356 12.5834 19.2228 12.5834 18.0625H18.4167C18.4167 19.2228 18.8776 20.3356 19.6981 21.1561C20.5186 21.9766 21.6314 22.4375 22.7917 22.4375C23.952 22.4375 25.0648 21.9766 25.8853 21.1561C26.7057 20.3356 27.1667 19.2228 27.1667 18.0625H28.625C29.0118 18.0625 29.3827 17.9088 29.6562 17.6354C29.9297 17.3619 30.0834 16.9909 30.0834 16.6042V12.2292C30.0834 11.0688 29.6224 9.95603 28.8019 9.13556C27.9815 8.31509 26.8687 7.85415 25.7084 7.85415ZM16.9584 3.47915H19.3646C19.6542 3.48177 19.9364 3.57055 20.1754 3.73418C20.4143 3.8978 20.5991 4.12886 20.7063 4.3979L22.0917 7.85415H16.9584V3.47915ZM9.17085 4.64582C9.23903 4.31146 9.42231 4.0116 9.68877 3.79842C9.95523 3.58525 10.288 3.47227 10.6292 3.47915H14.0417V7.85415H8.52919L9.17085 4.64582ZM8.20835 19.5208C7.91992 19.5208 7.63797 19.4353 7.39815 19.275C7.15833 19.1148 6.97141 18.887 6.86103 18.6206C6.75065 18.3541 6.72177 18.0609 6.77804 17.778C6.83431 17.4951 6.9732 17.2352 7.17716 17.0313C7.38111 16.8273 7.64096 16.6884 7.92385 16.6322C8.20674 16.5759 8.49996 16.6048 8.76643 16.7152C9.03291 16.8255 9.26067 17.0125 9.42091 17.2523C9.58116 17.4921 9.66669 17.7741 9.66669 18.0625C9.66669 18.4493 9.51304 18.8202 9.23955 19.0937C8.96606 19.3672 8.59513 19.5208 8.20835 19.5208ZM22.7917 19.5208C22.5033 19.5208 22.2213 19.4353 21.9815 19.275C21.7417 19.1148 21.5547 18.887 21.4444 18.6206C21.334 18.3541 21.3051 18.0609 21.3614 17.778C21.4176 17.4951 21.5565 17.2352 21.7605 17.0313C21.9644 16.8273 22.2243 16.6884 22.5072 16.6322C22.7901 16.5759 23.0833 16.6048 23.3498 16.7152C23.6162 16.8255 23.844 17.0125 24.0042 17.2523C24.1645 17.4921 24.25 17.7741 24.25 18.0625C24.25 18.4493 24.0964 18.8202 23.8229 19.0937C23.5494 19.3672 23.1785 19.5208 22.7917 19.5208ZM27.1667 15.1458H26.0292C25.6191 14.6947 25.1193 14.3342 24.5618 14.0876C24.0043 13.8409 23.4013 13.7135 22.7917 13.7135C22.182 13.7135 21.5791 13.8409 21.0216 14.0876C20.4641 14.3342 19.9642 14.6947 19.5542 15.1458H11.4459C11.0358 14.6947 10.536 14.3342 9.97845 14.0876C9.42093 13.8409 8.81801 13.7135 8.20835 13.7135C7.5987 13.7135 6.99578 13.8409 6.43825 14.0876C5.88073 14.3342 5.38091 14.6947 4.97085 15.1458H3.83335V12.2292C3.83335 11.8424 3.987 11.4714 4.26049 11.198C4.53398 10.9245 4.90491 10.7708 5.29169 10.7708H25.7084C26.0951 10.7708 26.4661 10.9245 26.7396 11.198C27.013 11.4714 27.1667 11.8424 27.1667 12.2292V15.1458Z" fill="#FAFAFA"/>
</svg>
