<svg width="31" height="31" viewBox="0 0 31 31" fill="none" xmlns="http://www.w3.org/2000/svg">
<path d="M27.2688 6.91042C25.6817 4.7191 23.508 3.02058 20.9979 2.01042C18.7851 1.1097 16.3848 0.766459 14.0081 1.01087C11.6315 1.25528 9.35132 2.07986 7.36808 3.4121C5.38484 4.74435 3.75928 6.54345 2.63436 8.65121C1.50943 10.759 0.919585 13.1108 0.916687 15.5V16.3167C1.04395 18.5977 1.70854 20.8163 2.85627 22.7917C4.7306 26.0814 7.81092 28.5133 11.4459 29.5729C12.767 29.9304 14.1315 30.1022 15.5 30.0833C16.4204 30.0876 17.3389 29.9997 18.2417 29.8208C21.2205 29.2442 23.9454 27.7528 26.0366 25.5545C28.1278 23.3561 29.4812 20.5602 29.9084 17.5563C30.0179 16.8762 30.0764 16.1888 30.0834 15.5C30.096 12.4082 29.1087 9.39518 27.2688 6.91042ZM24.3521 8.03334L22.7917 12.2042L20.4292 12.8458L16.9584 10.3813V7.68334L20.5896 5.04375C22.0631 5.75432 23.3663 6.77398 24.4104 8.03334H24.3521ZM18.4167 15.0188L17.2792 18.4167H13.7063L12.5834 15.0188L15.5 12.9333L18.4167 15.0188ZM15.5 3.83334C16.042 3.83943 16.5829 3.88329 17.1188 3.96459L15.5 5.13125L13.8813 3.96459C14.4172 3.88329 14.958 3.83943 15.5 3.83334ZM5.11669 10.2063L5.70002 12.1313L4.0521 13.2833C4.25912 12.2123 4.61758 11.1762 5.11669 10.2063ZM7.1146 23.5792L9.1271 23.6521L9.66669 25.5917C8.72959 25.0383 7.87119 24.3614 7.1146 23.5792ZM9.66669 20.75L5.07294 20.5896C4.49334 19.4513 4.10883 18.2239 3.93544 16.9583L7.56669 14.4208L9.66669 15.325L10.9646 19.35L9.66669 20.75ZM10.9209 12.6854L8.64585 11.6646L7.31877 7.28959C8.21326 6.37603 9.25306 5.61712 10.3959 5.04375L14.0417 7.68334V10.3813L10.9209 12.6854ZM16.9584 27.0646C15.6789 27.2163 14.3832 27.1572 13.1229 26.8896L11.9125 22.6313L13.1229 21.3333H17.6L18.5771 22.7917L16.9584 27.0646ZM20.4729 26.0438L21.1438 24.25L23.1271 24.3521C22.3112 25.0392 21.4031 25.6086 20.4292 26.0438H20.4729ZM25.5188 21.4938L20.9834 21.3333L19.9479 19.7292L21.2459 15.7042L23.4479 15.1063L26.8896 18.0229C26.6122 19.2498 26.1343 20.4225 25.475 21.4938H25.5188ZM25.5917 12.9917L26.2917 11.125C26.7023 12.1162 26.9628 13.1632 27.0646 14.2313L25.5917 12.9917Z" fill="#FAFAFA"/>
</svg>
