<svg width="26" height="30" viewBox="0 0 26 30" fill="none" xmlns="http://www.w3.org/2000/svg">
<path d="M2.29165 15C1.90487 15 1.53394 15.1537 1.26045 15.4271C0.986959 15.7006 0.833313 16.0716 0.833313 16.4583V28.125C0.833313 28.5118 0.986959 28.8827 1.26045 29.1562C1.53394 29.4297 1.90487 29.5833 2.29165 29.5833C2.67842 29.5833 3.04935 29.4297 3.32284 29.1562C3.59633 28.8827 3.74998 28.5118 3.74998 28.125V16.4583C3.74998 16.0716 3.59633 15.7006 3.32284 15.4271C3.04935 15.1537 2.67842 15 2.29165 15ZM9.58331 0.416672C9.19654 0.416672 8.82561 0.570317 8.55212 0.843808C8.27863 1.1173 8.12498 1.48823 8.12498 1.87501V28.125C8.12498 28.5118 8.27863 28.8827 8.55212 29.1562C8.82561 29.4297 9.19654 29.5833 9.58331 29.5833C9.97009 29.5833 10.341 29.4297 10.6145 29.1562C10.888 28.8827 11.0416 28.5118 11.0416 28.125V1.87501C11.0416 1.48823 10.888 1.1173 10.6145 0.843808C10.341 0.570317 9.97009 0.416672 9.58331 0.416672ZM24.1666 20.8333C23.7799 20.8333 23.4089 20.987 23.1354 21.2605C22.862 21.534 22.7083 21.9049 22.7083 22.2917V28.125C22.7083 28.5118 22.862 28.8827 23.1354 29.1562C23.4089 29.4297 23.7799 29.5833 24.1666 29.5833C24.5534 29.5833 24.9244 29.4297 25.1978 29.1562C25.4713 28.8827 25.625 28.5118 25.625 28.125V22.2917C25.625 21.9049 25.4713 21.534 25.1978 21.2605C24.9244 20.987 24.5534 20.8333 24.1666 20.8333ZM16.875 9.16667C16.4882 9.16667 16.1173 9.32032 15.8438 9.59381C15.5703 9.8673 15.4166 10.2382 15.4166 10.625V28.125C15.4166 28.5118 15.5703 28.8827 15.8438 29.1562C16.1173 29.4297 16.4882 29.5833 16.875 29.5833C17.2618 29.5833 17.6327 29.4297 17.9062 29.1562C18.1797 28.8827 18.3333 28.5118 18.3333 28.125V10.625C18.3333 10.2382 18.1797 9.8673 17.9062 9.59381C17.6327 9.32032 17.2618 9.16667 16.875 9.16667Z" fill="#FAFAFA"/>
</svg>
