<svg width="25" height="18" viewBox="0 0 25 18" fill="none" xmlns="http://www.w3.org/2000/svg">
<path d="M24.1816 0.520894C24.0179 0.355841 23.8231 0.224833 23.6085 0.135431C23.394 0.0460284 23.1638 0 22.9313 0C22.6988 0 22.4687 0.0460284 22.2541 0.135431C22.0395 0.224833 21.8447 0.355841 21.681 0.520894L8.56174 13.6578L3.04988 8.12832C2.8799 7.96413 2.67926 7.83502 2.45939 7.74837C2.23952 7.66173 2.00474 7.61923 1.76845 7.62332C1.53216 7.62741 1.29899 7.678 1.08226 7.7722C0.865517 7.8664 0.669455 8.00237 0.505264 8.17234C0.341073 8.34231 0.211969 8.54296 0.125322 8.76283C0.0386745 8.9827 -0.00381876 9.21748 0.000269286 9.45376C0.00435733 9.69005 0.0549464 9.92322 0.149147 10.14C0.243348 10.3567 0.379316 10.5528 0.549288 10.717L7.31144 17.4791C7.47515 17.6442 7.66991 17.7752 7.88451 17.8646C8.0991 17.954 8.32927 18 8.56174 18C8.79421 18 9.02438 17.954 9.23897 17.8646C9.45356 17.7752 9.64833 17.6442 9.81203 17.4791L24.1816 3.10953C24.3604 2.94463 24.503 2.74449 24.6006 2.52173C24.6982 2.29897 24.7485 2.05841 24.7485 1.81521C24.7485 1.57202 24.6982 1.33146 24.6006 1.1087C24.503 0.885934 24.3604 0.685796 24.1816 0.520894Z" fill="#FAFAFA"/>
</svg>
