<svg width="27" height="31" viewBox="0 0 27 31" fill="none" xmlns="http://www.w3.org/2000/svg">
<path d="M22.25 15.7188V2.37502C22.25 1.98825 22.0964 1.61731 21.8229 1.34382C21.5494 1.07033 21.1784 0.916687 20.7917 0.916687C20.4049 0.916687 20.034 1.07033 19.7605 1.34382C19.487 1.61731 19.3333 1.98825 19.3333 2.37502V15.7188C18.0704 16.0855 16.9607 16.8527 16.1717 17.9048C15.3826 18.9569 14.9568 20.237 14.9583 21.5521C14.9583 24.5417 17.175 30.0104 20.7917 30.0104C24.4083 30.0104 26.625 24.5417 26.625 21.5521C26.6266 20.237 26.2008 18.9569 25.4117 17.9048C24.6226 16.8527 23.513 16.0855 22.25 15.7188ZM20.7917 27.1667C19.625 27.1667 17.875 23.8563 17.875 21.625C17.8393 20.8136 18.1259 20.0209 18.6723 19.4199C19.2186 18.8189 19.9805 18.4582 20.7917 18.4167C21.6029 18.4582 22.3647 18.8189 22.9111 19.4199C23.4575 20.0209 23.744 20.8136 23.7083 21.625C23.7083 23.8563 21.9583 27.1667 20.7917 27.1667ZM10.5833 0.916687C10.1966 0.916687 9.82563 1.07033 9.55214 1.34382C9.27865 1.61731 9.125 1.98825 9.125 2.37502V10.3375L7.66667 11.3146V2.37502C7.66667 1.98825 7.51302 1.61731 7.23953 1.34382C6.96604 1.07033 6.59511 0.916687 6.20833 0.916687C5.82156 0.916687 5.45063 1.07033 5.17714 1.34382C4.90365 1.61731 4.75 1.98825 4.75 2.37502V11.3146L3.29167 10.3375V2.37502C3.29167 1.98825 3.13802 1.61731 2.86453 1.34382C2.59104 1.07033 2.22011 0.916687 1.83333 0.916687C1.44656 0.916687 1.07563 1.07033 0.802136 1.34382C0.528645 1.61731 0.375 1.98825 0.375 2.37502V11.125C0.376243 11.3652 0.436797 11.6014 0.551283 11.8126C0.665769 12.0237 0.83064 12.2033 1.03125 12.3354L4.75 14.8292V28.625C4.75 29.0118 4.90365 29.3827 5.17714 29.6562C5.45063 29.9297 5.82156 30.0834 6.20833 30.0834C6.59511 30.0834 6.96604 29.9297 7.23953 29.6562C7.51302 29.3827 7.66667 29.0118 7.66667 28.625V14.8292L11.3854 12.3354C11.586 12.2033 11.7509 12.0237 11.8654 11.8126C11.9799 11.6014 12.0404 11.3652 12.0417 11.125V2.37502C12.0417 1.98825 11.888 1.61731 11.6145 1.34382C11.341 1.07033 10.9701 0.916687 10.5833 0.916687Z" fill="#FAFAFA"/>
</svg>
