<svg width="7" height="27" viewBox="0 0 7 27" fill="none" xmlns="http://www.w3.org/2000/svg">
<path d="M3.49998 6.20833C4.07684 6.20833 4.64075 6.03728 5.12039 5.71679C5.60004 5.3963 5.97387 4.94078 6.19463 4.40783C6.41539 3.87488 6.47315 3.28843 6.3606 2.72265C6.24806 2.15688 5.97028 1.63718 5.56238 1.22927C5.15447 0.82137 4.63477 0.543584 4.06899 0.431044C3.50322 0.318504 2.91677 0.376264 2.38382 0.597019C1.85087 0.817775 1.39535 1.19161 1.07486 1.67125C0.754374 2.1509 0.583315 2.71481 0.583315 3.29167C0.583315 4.06522 0.890606 4.80708 1.43759 5.35406C1.98457 5.90104 2.72643 6.20833 3.49998 6.20833ZM3.49998 20.7917C2.92312 20.7917 2.35921 20.9627 1.87957 21.2832C1.39992 21.6037 1.02609 22.0592 0.805332 22.5922C0.584577 23.1251 0.526817 23.7116 0.639357 24.2773C0.751897 24.8431 1.02968 25.3628 1.43759 25.7707C1.84549 26.1786 2.36519 26.4564 2.93097 26.569C3.49675 26.6815 4.08319 26.6237 4.61614 26.403C5.14909 26.1822 5.60461 25.8084 5.9251 25.3287C6.24559 24.8491 6.41665 24.2852 6.41665 23.7083C6.41665 22.9348 6.10936 22.1929 5.56238 21.6459C5.01539 21.099 4.27353 20.7917 3.49998 20.7917ZM3.49998 10.5833C2.92312 10.5833 2.35921 10.7544 1.87957 11.0749C1.39992 11.3954 1.02609 11.8509 0.805332 12.3838C0.584577 12.9168 0.526817 13.5032 0.639357 14.069C0.751897 14.6348 1.02968 15.1545 1.43759 15.5624C1.84549 15.9703 2.36519 16.2481 2.93097 16.3606C3.49675 16.4732 4.08319 16.4154 4.61614 16.1947C5.14909 15.9739 5.60461 15.6001 5.9251 15.1204C6.24559 14.6408 6.41665 14.0769 6.41665 13.5C6.41665 12.7265 6.10936 11.9846 5.56238 11.4376C5.01539 10.8906 4.27353 10.5833 3.49998 10.5833Z" fill="#FAFAFA"/>
</svg>
