<svg width="27" height="31" viewBox="0 0 27 31" fill="none" xmlns="http://www.w3.org/2000/svg">
<path d="M22.25 8.20835H21.7396C22.0724 7.52696 22.2469 6.77916 22.25 6.02085C22.2544 5.00486 21.9547 4.01081 21.3893 3.16664C20.824 2.32247 20.0189 1.66682 19.0778 1.28409C18.1366 0.901358 17.1025 0.809059 16.1084 1.01907C15.1144 1.22909 14.2059 1.7318 13.5 2.46251C12.7941 1.7318 11.8856 1.22909 10.8916 1.01907C9.89755 0.809059 8.86339 0.901358 7.92225 1.28409C6.9811 1.66682 6.17604 2.32247 5.61069 3.16664C5.04535 4.01081 4.74559 5.00486 4.75 6.02085C4.75311 6.77916 4.9276 7.52696 5.26042 8.20835H4.75C3.58968 8.20835 2.47688 8.66928 1.65641 9.48976C0.835936 10.3102 0.375 11.423 0.375 12.5833V15.5C0.375 15.8868 0.528645 16.2577 0.802136 16.5312C1.07563 16.8047 1.44656 16.9583 1.83333 16.9583H3.29167V25.7083C3.29167 26.8687 3.7526 27.9815 4.57307 28.8019C5.39355 29.6224 6.50634 30.0833 7.66667 30.0833H19.3333C20.4937 30.0833 21.6065 29.6224 22.4269 28.8019C23.2474 27.9815 23.7083 26.8687 23.7083 25.7083V16.9583H25.1667C25.5534 16.9583 25.9244 16.8047 26.1979 16.5312C26.4714 16.2577 26.625 15.8868 26.625 15.5V12.5833C26.625 11.423 26.1641 10.3102 25.3436 9.48976C24.5231 8.66928 23.4103 8.20835 22.25 8.20835ZM12.0417 27.1667H7.66667C7.27989 27.1667 6.90896 27.013 6.63547 26.7395C6.36198 26.4661 6.20833 26.0951 6.20833 25.7083V16.9583H12.0417V27.1667ZM12.0417 14.0417H3.29167V12.5833C3.29167 12.1966 3.44531 11.8256 3.7188 11.5522C3.99229 11.2787 4.36323 11.125 4.75 11.125H12.0417V14.0417ZM12.0417 8.20835H9.85417C9.42152 8.20835 8.99859 8.08005 8.63886 7.83969C8.27913 7.59932 7.99875 7.25768 7.83318 6.85797C7.66761 6.45825 7.62429 6.01842 7.7087 5.59409C7.7931 5.16975 8.00144 4.77998 8.30737 4.47405C8.6133 4.16812 9.00307 3.95978 9.42741 3.87538C9.85174 3.79097 10.2916 3.83429 10.6913 3.99986C11.091 4.16543 11.4326 4.4458 11.673 4.80554C11.9134 5.16527 12.0417 5.5882 12.0417 6.02085V8.20835ZM14.9583 6.02085C14.9583 5.5882 15.0866 5.16527 15.327 4.80554C15.5674 4.4458 15.909 4.16543 16.3087 3.99986C16.7084 3.83429 17.1483 3.79097 17.5726 3.87538C17.9969 3.95978 18.3867 4.16812 18.6926 4.47405C18.9986 4.77998 19.2069 5.16975 19.2913 5.59409C19.3757 6.01842 19.3324 6.45825 19.1668 6.85797C19.0013 7.25768 18.7209 7.59932 18.3611 7.83969C18.0014 8.08005 17.5785 8.20835 17.1458 8.20835H14.9583V6.02085ZM20.7917 25.7083C20.7917 26.0951 20.638 26.4661 20.3645 26.7395C20.091 27.013 19.7201 27.1667 19.3333 27.1667H14.9583V16.9583H20.7917V25.7083ZM23.7083 14.0417H14.9583V11.125H22.25C22.6368 11.125 23.0077 11.2787 23.2812 11.5522C23.5547 11.8256 23.7083 12.1966 23.7083 12.5833V14.0417Z" fill="#FAFAFA"/>
</svg>
