<svg width="27" height="30" viewBox="0 0 27 30" fill="none" xmlns="http://www.w3.org/2000/svg">
<path d="M25.1667 9.16668L16.4167 1.49584C15.6145 0.778408 14.5761 0.381775 13.5 0.381775C12.4238 0.381775 11.3854 0.778408 10.5833 1.49584L1.83332 9.16668C1.37011 9.58095 1.00046 10.0892 0.749007 10.6574C0.497549 11.2257 0.370046 11.8411 0.374986 12.4625V25.2083C0.374986 26.3687 0.835922 27.4815 1.65639 28.3019C2.47687 29.1224 3.58966 29.5833 4.74999 29.5833H22.25C23.4103 29.5833 24.5231 29.1224 25.3436 28.3019C26.1641 27.4815 26.625 26.3687 26.625 25.2083V12.4479C26.6279 11.829 26.4993 11.2164 26.248 10.6508C25.9966 10.0852 25.628 9.57932 25.1667 9.16668V9.16668ZM16.4167 26.6667H10.5833V19.375C10.5833 18.9882 10.737 18.6173 11.0105 18.3438C11.2839 18.0703 11.6549 17.9167 12.0417 17.9167H14.9583C15.3451 17.9167 15.716 18.0703 15.9895 18.3438C16.263 18.6173 16.4167 18.9882 16.4167 19.375V26.6667ZM23.7083 25.2083C23.7083 25.5951 23.5547 25.966 23.2812 26.2395C23.0077 26.513 22.6368 26.6667 22.25 26.6667H19.3333V19.375C19.3333 18.2147 18.8724 17.1019 18.0519 16.2814C17.2314 15.4609 16.1186 15 14.9583 15H12.0417C10.8813 15 9.76853 15.4609 8.94806 16.2814C8.12759 17.1019 7.66665 18.2147 7.66665 19.375V26.6667H4.74999C4.36321 26.6667 3.99228 26.513 3.71879 26.2395C3.4453 25.966 3.29165 25.5951 3.29165 25.2083V12.4479C3.29191 12.2409 3.33627 12.0362 3.42176 11.8476C3.50725 11.6591 3.63193 11.4908 3.78749 11.3542L12.5375 3.69793C12.8036 3.46413 13.1457 3.33519 13.5 3.33519C13.8542 3.33519 14.1964 3.46413 14.4625 3.69793L23.2125 11.3542C23.368 11.4908 23.4927 11.6591 23.5782 11.8476C23.6637 12.0362 23.7081 12.2409 23.7083 12.4479V25.2083Z" fill="#FAFAFA"/>
</svg>
