<svg width="31" height="31" viewBox="0 0 31 31" fill="none" xmlns="http://www.w3.org/2000/svg">
<path d="M14.4646 20.2979C14.4019 20.3672 14.3435 20.4403 14.2896 20.5167C14.2344 20.598 14.1903 20.6862 14.1584 20.7792C14.1163 20.8618 14.0868 20.9503 14.0709 21.0417C14.0637 21.1387 14.0637 21.2362 14.0709 21.3333C14.0659 21.5246 14.1059 21.7144 14.1875 21.8875C14.253 22.0685 14.3575 22.2328 14.4936 22.3689C14.6297 22.505 14.7941 22.6095 14.975 22.675C15.1496 22.7521 15.3383 22.792 15.5292 22.792C15.72 22.792 15.9088 22.7521 16.0834 22.675C16.2643 22.6095 16.4287 22.505 16.5648 22.3689C16.7009 22.2328 16.8054 22.0685 16.8709 21.8875C16.9356 21.7102 16.9653 21.522 16.9584 21.3333C16.9595 21.1414 16.9227 20.9511 16.8501 20.7735C16.7775 20.5958 16.6706 20.4342 16.5354 20.2979C16.3999 20.1612 16.2386 20.0527 16.0609 19.9787C15.8832 19.9047 15.6925 19.8665 15.5 19.8665C15.3075 19.8665 15.1169 19.9047 14.9392 19.9787C14.7615 20.0527 14.6002 20.1612 14.4646 20.2979ZM15.5 0.916656C12.6157 0.916656 9.79618 1.77195 7.39796 3.37439C4.99974 4.97683 3.13056 7.25443 2.02678 9.91919C0.923006 12.5839 0.634207 15.5162 1.19691 18.3451C1.75961 21.1739 3.14854 23.7724 5.18805 25.812C7.22757 27.8515 9.82607 29.2404 12.655 29.8031C15.4838 30.3658 18.4161 30.077 21.0808 28.9732C23.7456 27.8695 26.0232 26.0003 27.6256 23.6021C29.2281 21.2038 30.0834 18.3843 30.0834 15.5C30.0834 13.5849 29.7062 11.6885 28.9733 9.91919C28.2404 8.14986 27.1662 6.5422 25.812 5.18802C24.4578 3.83383 22.8502 2.75963 21.0808 2.02675C19.3115 1.29387 17.4151 0.916656 15.5 0.916656ZM15.5 27.1667C13.1926 27.1667 10.9369 26.4824 9.01837 25.2005C7.0998 23.9185 5.60445 22.0964 4.72143 19.9646C3.83841 17.8328 3.60737 15.487 4.05753 13.2239C4.50769 10.9608 5.61883 8.88202 7.25045 7.25041C8.88206 5.6188 10.9609 4.50766 13.224 4.0575C15.4871 3.60733 17.8329 3.83837 19.9647 4.7214C22.0965 5.60442 23.9186 7.09976 25.2005 9.01834C26.4825 10.9369 27.1667 13.1925 27.1667 15.5C27.1667 18.5942 25.9375 21.5616 23.7496 23.7496C21.5617 25.9375 18.5942 27.1667 15.5 27.1667ZM15.5 8.20832C14.7316 8.20783 13.9766 8.40975 13.3109 8.79376C12.6453 9.17777 12.0926 9.73033 11.7084 10.3958C11.6028 10.5618 11.532 10.7474 11.5001 10.9415C11.4682 11.1356 11.4758 11.3341 11.5226 11.5251C11.5694 11.7162 11.6544 11.8958 11.7724 12.0531C11.8904 12.2105 12.039 12.3423 12.2093 12.4408C12.3795 12.5392 12.568 12.6022 12.7632 12.6259C12.9585 12.6496 13.1565 12.6336 13.3454 12.5788C13.5343 12.524 13.7101 12.4315 13.8624 12.307C14.0146 12.1825 14.1401 12.0284 14.2313 11.8542C14.3598 11.6316 14.5448 11.447 14.7676 11.3189C14.9904 11.1909 15.2431 11.124 15.5 11.125C15.8868 11.125 16.2577 11.2786 16.5312 11.5521C16.8047 11.8256 16.9584 12.1965 16.9584 12.5833C16.9584 12.9701 16.8047 13.341 16.5312 13.6145C16.2577 13.888 15.8868 14.0417 15.5 14.0417C15.1133 14.0417 14.7423 14.1953 14.4688 14.4688C14.1953 14.7423 14.0417 15.1132 14.0417 15.5V16.9583C14.0417 17.3451 14.1953 17.716 14.4688 17.9895C14.7423 18.263 15.1133 18.4167 15.5 18.4167C15.8868 18.4167 16.2577 18.263 16.5312 17.9895C16.8047 17.716 16.9584 17.3451 16.9584 16.9583V16.6958C17.9229 16.3459 18.7337 15.668 19.2491 14.7808C19.7645 13.8937 19.9516 12.8535 19.7779 11.8423C19.6042 10.8311 19.0805 9.91314 18.2986 9.24887C17.5166 8.58459 16.526 8.21628 15.5 8.20832Z" fill="#FAFAFA"/>
</svg>
