<svg width="29" height="30" viewBox="0 0 29 30" fill="none" xmlns="http://www.w3.org/2000/svg">
<path d="M26.5134 15.8478C26.2796 15.5817 26.1506 15.2396 26.1506 14.8853C26.1506 14.5311 26.2796 14.1889 26.5134 13.9228L28.38 11.8228C28.5857 11.5934 28.7135 11.3047 28.7449 10.9981C28.7763 10.6916 28.7099 10.383 28.555 10.1166L25.6384 5.07074C25.4851 4.80462 25.2517 4.59368 24.9716 4.46799C24.6914 4.34229 24.3786 4.30826 24.078 4.37074L21.3363 4.9249C20.9874 4.99699 20.6243 4.93889 20.3153 4.76157C20.0063 4.58425 19.773 4.29998 19.6592 3.9624L18.7696 1.29365C18.6718 1.004 18.4854 0.752414 18.2368 0.574464C17.9882 0.396514 17.6899 0.301197 17.3842 0.301986H11.5509C11.2329 0.285388 10.9182 0.373337 10.6548 0.552403C10.3915 0.731468 10.194 0.991806 10.0925 1.29365L9.27588 3.9624C9.16213 4.29998 8.92875 4.58425 8.61979 4.76157C8.31083 4.93889 7.94765 4.99699 7.59879 4.9249L4.78421 4.37074C4.49918 4.33046 4.20861 4.37544 3.94909 4.5C3.68958 4.62457 3.47273 4.82315 3.32588 5.07074L0.409211 10.1166C0.250487 10.38 0.179119 10.6869 0.205311 10.9934C0.231503 11.2998 0.353915 11.5901 0.555045 11.8228L2.40713 13.9228C2.64093 14.1889 2.76987 14.5311 2.76987 14.8853C2.76987 15.2396 2.64093 15.5817 2.40713 15.8478L0.555045 17.9478C0.353915 18.1805 0.231503 18.4708 0.205311 18.7773C0.179119 19.0837 0.250487 19.3906 0.409211 19.6541L3.32588 24.6999C3.47915 24.966 3.71251 25.177 3.9927 25.3027C4.2729 25.4283 4.58562 25.4624 4.88629 25.3999L7.62796 24.8457C7.97682 24.7737 8.34 24.8318 8.64896 25.0091C8.95792 25.1864 9.1913 25.4707 9.30504 25.8082L10.1946 28.477C10.2961 28.7788 10.4936 29.0392 10.7569 29.2182C11.0202 29.3973 11.3349 29.4853 11.653 29.4687H17.4863C17.792 29.4694 18.0903 29.3741 18.3389 29.1962C18.5875 29.0182 18.7739 28.7666 18.8717 28.477L19.7613 25.8082C19.875 25.4707 20.1084 25.1864 20.4174 25.0091C20.7263 24.8318 21.0895 24.7737 21.4384 24.8457L24.18 25.3999C24.4807 25.4624 24.7934 25.4283 25.0736 25.3027C25.3538 25.177 25.5872 24.966 25.7405 24.6999L28.6571 19.6541C28.812 19.3877 28.8784 19.079 28.847 18.7725C28.8155 18.466 28.6878 18.1773 28.4821 17.9478L26.5134 15.8478ZM24.3405 17.802L25.5071 19.1145L23.6405 22.352L21.9196 22.002C20.8693 21.7873 19.7767 21.9657 18.8492 22.5034C17.9218 23.041 17.224 23.9005 16.8884 24.9187L16.3342 26.552H12.6009L12.0759 24.8895C11.7402 23.8713 11.0425 23.0119 10.115 22.4742C9.18754 21.9365 8.09495 21.7581 7.04463 21.9728L5.32379 22.3228L3.42796 19.0999L4.59463 17.7874C5.31206 16.9853 5.7087 15.9469 5.7087 14.8707C5.7087 13.7946 5.31206 12.7562 4.59463 11.9541L3.42796 10.6416L5.29463 7.43324L7.01546 7.78324C8.06578 7.99794 9.15838 7.81952 10.0858 7.28186C11.0133 6.7442 11.7111 5.88472 12.0467 4.86657L12.6009 3.21865H16.3342L16.8884 4.88115C17.224 5.8993 17.9218 6.75878 18.8492 7.29644C19.7767 7.8341 20.8693 8.01252 21.9196 7.79782L23.6405 7.44782L25.5071 10.6853L24.3405 11.9978C23.6311 12.7981 23.2394 13.8305 23.2394 14.8999C23.2394 15.9693 23.6311 17.0017 24.3405 17.802ZM14.4675 9.05199C13.3138 9.05199 12.186 9.39411 11.2267 10.0351C10.2674 10.6761 9.51976 11.5871 9.07825 12.653C8.63674 13.7189 8.52122 14.8918 8.7463 16.0233C8.97138 17.1549 9.52695 18.1943 10.3428 19.0101C11.1586 19.8259 12.198 20.3815 13.3295 20.6066C14.4611 20.8316 15.634 20.7161 16.6999 20.2746C17.7658 19.8331 18.6768 19.0854 19.3178 18.1261C19.9588 17.1669 20.3009 16.039 20.3009 14.8853C20.3009 13.3382 19.6863 11.8545 18.5923 10.7605C17.4984 9.66657 16.0146 9.05199 14.4675 9.05199ZM14.4675 17.802C13.8907 17.802 13.3268 17.6309 12.8471 17.3104C12.3675 16.99 11.9937 16.5344 11.7729 16.0015C11.5521 15.4685 11.4944 14.8821 11.6069 14.3163C11.7195 13.7505 11.9972 13.2308 12.4051 12.8229C12.8131 12.415 13.3328 12.1372 13.8985 12.0247C14.4643 11.9122 15.0508 11.9699 15.5837 12.1907C16.1167 12.4114 16.5722 12.7853 16.8927 13.2649C17.2132 13.7446 17.3842 14.3085 17.3842 14.8853C17.3842 15.6589 17.0769 16.4007 16.5299 16.9477C15.983 17.4947 15.2411 17.802 14.4675 17.802Z" fill="#FAFAFA"/>
</svg>
