<svg width="28" height="29" viewBox="0 0 28 29" fill="none" xmlns="http://www.w3.org/2000/svg">
<path d="M10.3959 23.7083C9.96321 23.7083 9.54028 23.8366 9.18054 24.077C8.82081 24.3174 8.54043 24.659 8.37487 25.0587C8.2093 25.4584 8.16598 25.8983 8.25039 26.3226C8.33479 26.7469 8.54313 27.1367 8.84906 27.4426C9.15498 27.7486 9.54476 27.9569 9.96909 28.0413C10.3934 28.1257 10.8333 28.0824 11.233 27.9168C11.6327 27.7513 11.9743 27.4709 12.2147 27.1111C12.4551 26.7514 12.5834 26.3285 12.5834 25.8958C12.5834 25.3157 12.3529 24.7593 11.9427 24.349C11.5324 23.9388 10.976 23.7083 10.3959 23.7083ZM25.7084 19.3333H8.20835C7.82158 19.3333 7.45065 19.1797 7.17716 18.9062C6.90367 18.6327 6.75002 18.2618 6.75002 17.875C6.75002 17.4882 6.90367 17.1173 7.17716 16.8438C7.45065 16.5703 7.82158 16.4167 8.20835 16.4167H20.5911C21.5412 16.4137 22.4647 16.1029 23.2232 15.5307C23.9818 14.9586 24.5344 14.156 24.7984 13.2433L27.1098 5.14958C27.1716 4.93267 27.1823 4.70439 27.1409 4.48267C27.0996 4.26095 27.0074 4.05184 26.8715 3.87179C26.7357 3.69173 26.56 3.54563 26.3582 3.44497C26.1563 3.34431 25.9339 3.29183 25.7084 3.29167H7.82919C7.52703 2.44148 6.96998 1.70519 6.23401 1.18322C5.49803 0.661255 4.61896 0.379016 3.71669 0.375H2.37502C1.98825 0.375 1.61731 0.528645 1.34382 0.802136C1.07033 1.07563 0.916687 1.44656 0.916687 1.83333C0.916687 2.22011 1.07033 2.59104 1.34382 2.86453C1.61731 3.13802 1.98825 3.29167 2.37502 3.29167H3.71815C4.03483 3.29268 4.34266 3.39623 4.59556 3.58683C4.84847 3.77743 5.03283 4.04481 5.12106 4.34896L5.3471 5.14375V5.15104L7.74023 13.5248C6.62631 13.6439 5.60051 14.1857 4.87424 15.0387C4.14797 15.8917 3.77658 16.9907 3.8366 18.1094C3.89661 19.2281 4.38347 20.2811 5.19684 21.0514C6.0102 21.8218 7.08808 22.2508 8.20835 22.25H25.7084C26.0951 22.25 26.4661 22.0964 26.7396 21.8229C27.013 21.5494 27.1667 21.1784 27.1667 20.7917C27.1667 20.4049 27.013 20.034 26.7396 19.7605C26.4661 19.487 26.0951 19.3333 25.7084 19.3333ZM23.7746 6.20833L21.9954 12.4413C21.9074 12.7459 21.7229 13.0138 21.4697 13.2047C21.2165 13.3956 20.9082 13.4992 20.5911 13.5H10.7663L10.3944 12.1992L8.68377 6.20833H23.7746ZM22.0625 23.7083C21.6299 23.7083 21.2069 23.8366 20.8472 24.077C20.4875 24.3174 20.2071 24.659 20.0415 25.0587C19.876 25.4584 19.8326 25.8983 19.9171 26.3226C20.0015 26.7469 20.2098 27.1367 20.5157 27.4426C20.8217 27.7486 21.2114 27.9569 21.6358 28.0413C22.0601 28.1257 22.4999 28.0824 22.8996 27.9168C23.2994 27.7513 23.641 27.4709 23.8814 27.1111C24.1217 26.7514 24.25 26.3285 24.25 25.8958C24.25 25.3157 24.0196 24.7593 23.6093 24.349C23.1991 23.9388 22.6427 23.7083 22.0625 23.7083Z" fill="#FAFAFA"/>
</svg>
