<svg width="31" height="23" viewBox="0 0 31 23" fill="none" xmlns="http://www.w3.org/2000/svg">
<path d="M8.20835 15.375H12.5834C12.9701 15.375 13.3411 15.2214 13.6145 14.9479C13.888 14.6744 14.0417 14.3034 14.0417 13.9167C14.0417 13.5299 13.888 13.159 13.6145 12.8855C13.3411 12.612 12.9701 12.4583 12.5834 12.4583H8.20835C7.82158 12.4583 7.45065 12.612 7.17716 12.8855C6.90367 13.159 6.75002 13.5299 6.75002 13.9167C6.75002 14.3034 6.90367 14.6744 7.17716 14.9479C7.45065 15.2214 7.82158 15.375 8.20835 15.375ZM25.7084 0.791672H5.29169C4.13136 0.791672 3.01857 1.25261 2.19809 2.07308C1.37762 2.89355 0.916687 4.00635 0.916687 5.16667V18.2917C0.916687 19.452 1.37762 20.5648 2.19809 21.3853C3.01857 22.2057 4.13136 22.6667 5.29169 22.6667H25.7084C26.8687 22.6667 27.9815 22.2057 28.8019 21.3853C29.6224 20.5648 30.0834 19.452 30.0834 18.2917V5.16667C30.0834 4.00635 29.6224 2.89355 28.8019 2.07308C27.9815 1.25261 26.8687 0.791672 25.7084 0.791672ZM27.1667 18.2917C27.1667 18.6784 27.013 19.0494 26.7396 19.3229C26.4661 19.5964 26.0951 19.75 25.7084 19.75H5.29169C4.90491 19.75 4.53398 19.5964 4.26049 19.3229C3.987 19.0494 3.83335 18.6784 3.83335 18.2917V9.54167H27.1667V18.2917ZM27.1667 6.62501H3.83335V5.16667C3.83335 4.7799 3.987 4.40897 4.26049 4.13547C4.53398 3.86198 4.90491 3.70834 5.29169 3.70834H25.7084C26.0951 3.70834 26.4661 3.86198 26.7396 4.13547C27.013 4.40897 27.1667 4.7799 27.1667 5.16667V6.62501Z" fill="#FAFAFA"/>
</svg>
