<svg width="35" height="35" viewBox="0 0 35 35" fill="none" xmlns="http://www.w3.org/2000/svg">
<path d="M1.45831 18.2292V25.5208C1.45831 25.9076 1.61196 26.2786 1.88545 26.552C2.15894 26.8255 2.52987 26.9792 2.91665 26.9792H4.37498C4.37498 28.1395 4.83592 29.2523 5.65639 30.0728C6.47686 30.8932 7.58966 31.3542 8.74998 31.3542C9.9103 31.3542 11.0231 30.8932 11.8436 30.0728C12.664 29.2523 13.125 28.1395 13.125 26.9792H21.875C21.875 28.1395 22.3359 29.2523 23.1564 30.0728C23.9769 30.8932 25.0897 31.3542 26.25 31.3542C27.4103 31.3542 28.5231 30.8932 29.3436 30.0728C30.164 29.2523 30.625 28.1395 30.625 26.9792H32.0833C32.4701 26.9792 32.841 26.8255 33.1145 26.552C33.388 26.2786 33.5416 25.9076 33.5416 25.5208V8.02084C33.5416 6.86052 33.0807 5.74772 32.2602 4.92725C31.4398 4.10678 30.327 3.64584 29.1666 3.64584H16.0416C14.8813 3.64584 13.7685 4.10678 12.9481 4.92725C12.1276 5.74772 11.6666 6.86052 11.6666 8.02084V10.9375H8.74998C8.07078 10.9375 7.40091 11.0956 6.79342 11.3994C6.18593 11.7031 5.6575 12.1442 5.24998 12.6875L1.74998 17.3542C1.70733 17.4176 1.67302 17.4862 1.6479 17.5583L1.5604 17.7188C1.49603 17.8814 1.46146 18.0543 1.45831 18.2292ZM24.7916 26.9792C24.7916 26.6907 24.8772 26.4088 25.0374 26.169C25.1977 25.9291 25.4254 25.7422 25.6919 25.6319C25.9584 25.5215 26.2516 25.4926 26.5345 25.5489C26.8174 25.6051 27.0772 25.744 27.2812 25.948C27.4851 26.1519 27.624 26.4118 27.6803 26.6947C27.7366 26.9776 27.7077 27.2708 27.5973 27.5373C27.4869 27.8037 27.3 28.0315 27.0602 28.1917C26.8204 28.352 26.5384 28.4375 26.25 28.4375C25.8632 28.4375 25.4923 28.2839 25.2188 28.0104C24.9453 27.7369 24.7916 27.366 24.7916 26.9792ZM14.5833 8.02084C14.5833 7.63407 14.737 7.26314 15.0104 6.98965C15.2839 6.71616 15.6549 6.56251 16.0416 6.56251H29.1666C29.5534 6.56251 29.9244 6.71616 30.1978 6.98965C30.4713 7.26314 30.625 7.63407 30.625 8.02084V24.0625H29.4875C29.0774 23.6114 28.5776 23.2509 28.0201 23.0042C27.4626 22.7576 26.8596 22.6302 26.25 22.6302C25.6403 22.6302 25.0374 22.7576 24.4799 23.0042C23.9224 23.2509 23.4225 23.6114 23.0125 24.0625H14.5833V8.02084ZM11.6666 16.7708H5.83331L7.58331 14.4375C7.71915 14.2564 7.8953 14.1094 8.09779 14.0081C8.30029 13.9069 8.52358 13.8542 8.74998 13.8542H11.6666V16.7708ZM7.29165 26.9792C7.29165 26.6907 7.37718 26.4088 7.53742 26.169C7.69766 25.9291 7.92542 25.7422 8.1919 25.6319C8.45837 25.5215 8.7516 25.4926 9.03449 25.5489C9.31737 25.6051 9.57722 25.744 9.78118 25.948C9.98513 26.1519 10.124 26.4118 10.1803 26.6947C10.2366 26.9776 10.2077 27.2708 10.0973 27.5373C9.98693 27.8037 9.80001 28.0315 9.56019 28.1917C9.32036 28.352 9.03841 28.4375 8.74998 28.4375C8.36321 28.4375 7.99227 28.2839 7.71878 28.0104C7.44529 27.7369 7.29165 27.366 7.29165 26.9792ZM4.37498 19.6875H11.6666V23.7417C10.806 22.9725 9.67622 22.5746 8.52349 22.6347C7.37076 22.6948 6.28849 23.208 5.51248 24.0625H4.37498V19.6875Z" fill="#FAFAFA"/>
</svg>
